<svg width="824" height="163" viewBox="0 0 824 163" fill="none" xmlns="http://www.w3.org/2000/svg">
<rect y="125" width="21" height="68" transform="rotate(-90 0 125)" fill="#EC0000"/>
<rect x="32.0315" y="96.7561" width="21" height="68" transform="rotate(-90 32.0315 96.7561)" fill="#EC0000"/>
<rect x="66" y="69" width="21" height="68" transform="rotate(-90 66 69)" fill="#EC0000"/>
<path d="M180.321 124V51.2727H195.697V111.322H226.876V124H180.321ZM271.754 100.776V69.4545H286.882V124H272.358V114.092H271.789C270.558 117.288 268.511 119.857 265.646 121.798C262.805 123.74 259.337 124.71 255.241 124.71C251.595 124.71 248.387 123.882 245.618 122.224C242.848 120.567 240.681 118.212 239.119 115.158C237.58 112.104 236.799 108.446 236.775 104.185V69.4545H251.903V101.486C251.927 104.705 252.791 107.25 254.495 109.121C256.2 110.991 258.484 111.926 261.349 111.926C263.172 111.926 264.877 111.512 266.463 110.683C268.049 109.831 269.327 108.576 270.298 106.919C271.292 105.262 271.778 103.214 271.754 100.776ZM298.982 124V69.4545H313.4V79.0781H314.039C315.175 75.8821 317.069 73.3608 319.721 71.5142C322.372 69.6676 325.545 68.7443 329.238 68.7443C332.978 68.7443 336.163 69.6795 338.79 71.5497C341.418 73.3963 343.17 75.9058 344.046 79.0781H344.614C345.727 75.9531 347.739 73.4555 350.651 71.5852C353.587 69.6913 357.055 68.7443 361.056 68.7443C366.146 68.7443 370.277 70.366 373.45 73.6094C376.646 76.8291 378.244 81.3982 378.244 87.3168V124H363.151V90.2997C363.151 87.2694 362.346 84.9967 360.737 83.4815C359.127 81.9664 357.114 81.2088 354.7 81.2088C351.953 81.2088 349.811 82.0848 348.272 83.8366C346.733 85.5649 345.964 87.8494 345.964 90.6903V124H331.298V89.9801C331.298 87.3049 330.528 85.1742 328.989 83.5881C327.474 82.0019 325.474 81.2088 322.988 81.2088C321.307 81.2088 319.792 81.6349 318.442 82.4872C317.117 83.3158 316.063 84.4877 315.282 86.0028C314.501 87.4943 314.11 89.2462 314.11 91.2585V124H298.982ZM405.747 125.03C402.267 125.03 399.166 124.426 396.443 123.219C393.721 121.988 391.566 120.177 389.98 117.786C388.418 115.371 387.636 112.364 387.636 108.766C387.636 105.735 388.193 103.19 389.305 101.131C390.418 99.071 391.933 97.4138 393.851 96.1591C395.768 94.9044 397.946 93.9574 400.385 93.3182C402.847 92.679 405.428 92.2292 408.126 91.9688C411.299 91.6373 413.856 91.3295 415.797 91.0455C417.738 90.7377 419.147 90.2879 420.023 89.696C420.899 89.1042 421.337 88.2282 421.337 87.0682V86.8551C421.337 84.6061 420.626 82.866 419.206 81.6349C417.809 80.4039 415.821 79.7884 413.24 79.7884C410.518 79.7884 408.351 80.392 406.741 81.5994C405.132 82.7831 404.066 84.2746 403.545 86.0739L389.554 84.9375C390.264 81.6231 391.661 78.7585 393.744 76.3438C395.828 73.9053 398.515 72.035 401.805 70.733C405.12 69.4072 408.955 68.7443 413.311 68.7443C416.341 68.7443 419.241 69.0994 422.011 69.8097C424.805 70.5199 427.279 71.6207 429.433 73.1122C431.611 74.6037 433.328 76.5213 434.582 78.8651C435.837 81.1851 436.464 83.9669 436.464 87.2102V124H422.118V116.436H421.692C420.816 118.141 419.644 119.644 418.176 120.946C416.708 122.224 414.945 123.231 412.885 123.964C410.825 124.675 408.446 125.03 405.747 125.03ZM410.08 114.589C412.305 114.589 414.27 114.152 415.974 113.276C417.679 112.376 419.017 111.169 419.987 109.653C420.958 108.138 421.443 106.422 421.443 104.504V98.7159C420.97 99.0237 420.319 99.3078 419.49 99.5682C418.685 99.8049 417.774 100.03 416.756 100.243C415.738 100.432 414.72 100.61 413.702 100.776C412.684 100.918 411.76 101.048 410.932 101.166C409.156 101.427 407.606 101.841 406.28 102.409C404.954 102.977 403.924 103.747 403.19 104.717C402.456 105.664 402.089 106.848 402.089 108.268C402.089 110.328 402.835 111.902 404.327 112.991C405.842 114.057 407.759 114.589 410.08 114.589ZM447.917 124V114.98L474.621 81.919V81.5284H448.84V69.4545H492.839V79.2912L467.768 111.536V111.926H493.762V124H447.917ZM520.884 125.03C517.404 125.03 514.302 124.426 511.58 123.219C508.857 121.988 506.703 120.177 505.117 117.786C503.554 115.371 502.773 112.364 502.773 108.766C502.773 105.735 503.329 103.19 504.442 101.131C505.555 99.071 507.07 97.4138 508.988 96.1591C510.905 94.9044 513.083 93.9574 515.522 93.3182C517.984 92.679 520.564 92.2292 523.263 91.9688C526.435 91.6373 528.992 91.3295 530.934 91.0455C532.875 90.7377 534.284 90.2879 535.159 89.696C536.035 89.1042 536.473 88.2282 536.473 87.0682V86.8551C536.473 84.6061 535.763 82.866 534.343 81.6349C532.946 80.4039 530.957 79.7884 528.377 79.7884C525.654 79.7884 523.488 80.392 521.878 81.5994C520.268 82.7831 519.203 84.2746 518.682 86.0739L504.691 84.9375C505.401 81.6231 506.798 78.7585 508.881 76.3438C510.964 73.9053 513.651 72.035 516.942 70.733C520.257 69.4072 524.092 68.7443 528.448 68.7443C531.478 68.7443 534.378 69.0994 537.148 69.8097C539.942 70.5199 542.416 71.6207 544.57 73.1122C546.748 74.6037 548.464 76.5213 549.719 78.8651C550.974 81.1851 551.601 83.9669 551.601 87.2102V124H537.255V116.436H536.828C535.953 118.141 534.781 119.644 533.313 120.946C531.845 122.224 530.081 123.231 528.022 123.964C525.962 124.675 523.583 125.03 520.884 125.03ZM525.216 114.589C527.442 114.589 529.407 114.152 531.111 113.276C532.816 112.376 534.153 111.169 535.124 109.653C536.095 108.138 536.58 106.422 536.58 104.504V98.7159C536.106 99.0237 535.455 99.3078 534.627 99.5682C533.822 99.8049 532.91 100.03 531.892 100.243C530.874 100.432 529.856 100.61 528.838 100.776C527.82 100.918 526.897 101.048 526.069 101.166C524.293 101.427 522.742 101.841 521.417 102.409C520.091 102.977 519.061 103.747 518.327 104.717C517.593 105.664 517.226 106.848 517.226 108.268C517.226 110.328 517.972 111.902 519.463 112.991C520.979 114.057 522.896 114.589 525.216 114.589ZM606.368 112.525C606.368 114.865 606.548 116.575 606.908 117.655C607.268 118.645 607.943 119.32 608.933 119.68C610.013 120.04 611.723 120.22 614.063 120.22H618.653C625.673 120.22 631.748 118.375 636.878 114.685C642.008 110.905 645.428 105.82 647.138 99.43C647.138 99.25 647.318 99.16 647.678 99.16C647.858 99.16 648.038 99.25 648.218 99.43C648.488 99.52 648.623 99.61 648.623 99.7C647.813 108.61 647.408 116.035 647.408 121.975C647.408 122.695 647.228 123.235 646.868 123.595C646.598 123.865 646.103 124 645.383 124H581.663C581.483 124 581.393 123.73 581.393 123.19C581.393 122.65 581.483 122.38 581.663 122.38C584.543 122.38 586.613 122.155 587.873 121.705C589.223 121.255 590.123 120.4 590.573 119.14C591.113 117.79 591.383 115.765 591.383 113.065V50.56C591.383 47.86 591.113 45.88 590.573 44.62C590.123 43.36 589.223 42.505 587.873 42.055C586.523 41.515 584.453 41.245 581.663 41.245C581.483 41.245 581.393 40.975 581.393 40.435C581.393 39.895 581.483 39.625 581.663 39.625L588.548 39.76C592.688 39.94 596.108 40.03 598.808 40.03C601.508 40.03 604.928 39.94 609.068 39.76L615.953 39.625C616.223 39.625 616.358 39.895 616.358 40.435C616.358 40.975 616.223 41.245 615.953 41.245C613.163 41.245 611.093 41.515 609.743 42.055C608.393 42.505 607.493 43.405 607.043 44.755C606.593 46.015 606.368 47.995 606.368 50.695V112.525ZM707.743 116.71C708.103 116.71 708.328 116.935 708.418 117.385C708.598 117.745 708.508 118.015 708.148 118.195L694.243 124.81C693.883 124.99 693.433 125.08 692.893 125.08C691.453 125.08 690.058 124.315 688.708 122.785C687.448 121.255 686.548 119.185 686.008 116.575L680.203 120.625C678.133 122.155 676.198 123.28 674.398 124C672.598 124.63 670.573 124.945 668.323 124.945C664.453 124.945 661.528 124.09 659.548 122.38C657.568 120.67 656.578 118.285 656.578 115.225C656.578 112.795 657.163 110.86 658.333 109.42C659.503 107.89 660.943 106.72 662.653 105.91C664.453 105.01 666.928 104.02 670.078 102.94L673.453 101.725L685.603 97.27V89.575C685.603 83.815 685.108 79.63 684.118 77.02C683.218 74.41 681.643 73.105 679.393 73.105C674.623 73.105 671.923 76.795 671.293 84.175C671.023 86.875 670.213 88.81 668.863 89.98C667.603 91.15 665.803 91.735 663.463 91.735C661.213 91.735 659.548 91.285 658.468 90.385C657.478 89.395 656.983 88.135 656.983 86.605C656.983 83.905 658.558 81.34 661.708 78.91C664.858 76.39 668.638 74.365 673.048 72.835C677.548 71.305 681.508 70.54 684.928 70.54C688.888 70.54 692.083 71.8 694.513 74.32C697.033 76.75 698.293 80.485 698.293 85.525V109.42C698.293 112.03 698.743 114.055 699.643 115.495C700.633 116.935 701.983 117.655 703.693 117.655C704.953 117.655 706.258 117.34 707.608 116.71H707.743ZM685.738 114.28C685.648 113.92 685.603 113.335 685.603 112.525V99.565L679.798 102.265C679.528 102.355 678.628 102.715 677.098 103.345C675.568 103.885 674.218 104.83 673.048 106.18C671.968 107.53 671.428 109.105 671.428 110.905C671.428 113.065 672.103 114.775 673.453 116.035C674.893 117.205 676.513 117.79 678.313 117.79C679.753 117.79 681.238 117.295 682.768 116.305L685.738 114.28ZM750.929 70.135C754.979 70.135 758.714 71.08 762.134 72.97C765.554 74.86 768.254 77.695 770.234 81.475C772.304 85.255 773.339 89.845 773.339 95.245C773.339 101.725 771.944 107.26 769.154 111.85C766.454 116.44 762.854 119.905 758.354 122.245C753.944 124.585 749.219 125.755 744.179 125.755C740.759 125.755 737.384 125.215 734.054 124.135C730.814 123.055 727.844 121.48 725.144 119.41L712.859 124.945H712.589C712.229 124.945 712.004 124.765 711.914 124.405C711.824 124.045 711.959 123.82 712.319 123.73C714.479 122.47 716.099 120.76 717.179 118.6C718.349 116.35 718.934 113.515 718.934 110.095V44.485C718.934 41.335 718.619 39.085 717.989 37.735C717.449 36.385 716.414 35.71 714.884 35.71C713.714 35.71 712.049 36.205 709.889 37.195H709.754C709.394 37.195 709.124 36.97 708.944 36.52C708.764 35.98 708.764 35.665 708.944 35.575L728.654 26.26L729.329 26.125C729.779 26.125 730.229 26.35 730.679 26.8C731.219 27.16 731.489 27.52 731.489 27.88V79.18C734.459 76.39 737.474 74.185 740.534 72.565C743.594 70.945 747.059 70.135 750.929 70.135ZM747.419 123.055C751.289 123.055 754.259 121.075 756.329 117.115C758.399 113.155 759.434 107.62 759.434 100.51C759.434 92.68 758.129 86.875 755.519 83.095C752.909 79.225 749.264 77.29 744.584 77.29C740.354 77.29 735.989 78.82 731.489 81.88V101.725C731.489 106.675 732.344 110.77 734.054 114.01C735.764 117.16 737.834 119.455 740.264 120.895C742.694 122.335 745.079 123.055 747.419 123.055ZM793.538 78.37C793.538 80.98 794.438 83.23 796.238 85.12C798.128 87.01 800.828 88.99 804.338 91.06C807.758 93.04 810.278 94.615 811.898 95.785C813.608 96.865 815.138 98.44 816.488 100.51C817.838 102.49 818.513 104.92 818.513 107.8C818.513 110.86 817.748 113.74 816.218 116.44C814.688 119.14 812.393 121.345 809.333 123.055C806.273 124.675 802.628 125.485 798.398 125.485C793.448 125.485 788.768 124.27 784.358 121.84C783.818 121.3 783.548 120.76 783.548 120.22L783.278 106.855C783.278 106.585 783.503 106.45 783.953 106.45C784.493 106.36 784.808 106.405 784.898 106.585C786.338 111.085 788.723 114.91 792.053 118.06C795.383 121.21 798.758 122.785 802.178 122.785C804.068 122.785 805.553 122.2 806.633 121.03C807.803 119.86 808.388 118.15 808.388 115.9C808.388 112.57 807.443 109.96 805.553 108.07C803.663 106.09 800.873 104.065 797.183 101.995C794.033 100.285 791.648 98.89 790.028 97.81C788.408 96.73 786.968 95.2 785.708 93.22C784.448 91.24 783.818 88.81 783.818 85.93C783.818 80.62 785.708 76.75 789.488 74.32C793.268 71.8 797.903 70.54 803.393 70.54C805.463 70.54 807.308 70.675 808.928 70.945C810.638 71.215 812.528 71.755 814.598 72.565C815.408 72.835 815.813 73.33 815.813 74.05C815.813 76.3 815.768 78.055 815.678 79.315L815.543 86.065C815.543 86.335 815.273 86.47 814.733 86.47C814.193 86.47 813.923 86.335 813.923 86.065C813.923 84.355 813.203 82.51 811.763 80.53C810.323 78.46 808.433 76.705 806.093 75.265C803.843 73.825 801.503 73.105 799.073 73.105C795.383 73.105 793.538 74.86 793.538 78.37Z" fill="black"/>
</svg>
