<svg width="284" height="324" viewBox="0 0 284 324" fill="none" xmlns="http://www.w3.org/2000/svg">
<g clip-path="url(#clip0_24_383)">
<rect x="62" y="64" width="204" height="224" fill="#EC0000"/>
<path d="M253.125 20.25H30.375C13.6055 20.25 0 33.8555 0 50.625V273.375C0 290.145 13.6055 303.75 30.375 303.75H253.125C269.895 303.75 283.5 290.145 283.5 273.375V50.625C283.5 33.8555 269.895 20.25 253.125 20.25ZM154.28 241.355C154.28 268.945 138.08 281.538 114.476 281.538C93.15 281.538 80.8102 270.527 74.482 257.175L96.1875 244.076C100.364 251.48 104.161 257.745 113.337 257.745C122.07 257.745 127.638 254.327 127.638 240.975V150.42H154.28V241.355ZM217.308 281.538C192.565 281.538 176.555 269.768 168.771 254.327L190.477 241.798C196.172 251.1 203.639 257.998 216.738 257.998C227.749 257.998 234.837 252.492 234.837 244.835C234.837 235.723 227.623 232.495 215.409 227.116L208.765 224.269C189.527 216.105 176.808 205.791 176.808 184.085C176.808 164.088 192.059 148.901 215.789 148.901C232.748 148.901 244.898 154.786 253.631 170.227L232.875 183.516C228.319 175.352 223.383 172.125 215.726 172.125C207.942 172.125 203.006 177.061 203.006 183.516C203.006 191.489 207.942 194.716 219.396 199.716L226.041 202.563C248.695 212.245 261.415 222.18 261.415 244.455C261.415 268.376 242.557 281.538 217.308 281.538Z" fill="#133C55"/>
</g>
<defs>
<clipPath id="clip0_24_383">
<rect width="283.5" height="324" fill="white"/>
</clipPath>
</defs>
</svg>
